<svg width="846" height="999" viewBox="0 0 846 999" fill="none" xmlns="http://www.w3.org/2000/svg">
<mask id="mask0_2366_22" style="mask-type:luminance" maskUnits="userSpaceOnUse" x="0" y="0" width="1016" height="1100">
<path d="M1016 0H0V1100H1016V0Z" fill="white"/>
</mask>
<g mask="url(#mask0_2366_22)">
<g opacity="0.0885123">
<mask id="mask1_2366_22" style="mask-type:luminance" maskUnits="userSpaceOnUse" x="65" y="10" width="886" height="1080">
<path d="M564.993 35.75C600.546 37.0797 631.124 41.2361 654.325 47.0424L564.993 35.75ZM835.305 128.589C854.435 143.299 872.34 160.182 889.299 180.184L835.305 128.589ZM148.273 301.985C130.284 322.53 111.857 341.717 90.0342 354.263L148.273 301.985ZM592.759 113.161C664.053 122.003 730.177 147.47 785.563 183.331L592.759 113.161ZM890.677 313.396C901.797 332.841 913.092 351.102 925.966 363.508L890.677 313.396ZM908.916 617.03C917.838 646.556 924.073 688.851 911.846 739.172L908.916 617.03ZM762.118 1008.11C718.89 1038.29 667.971 1058.01 612.717 1064.7L762.118 1008.11ZM133.917 464.033C126.937 480.533 119.742 496.107 110.932 507.1L133.917 464.033ZM557.241 189.2C641.882 191.323 720.748 222.297 777.525 286.341L557.241 189.2ZM835.145 394.81C830.782 380.809 824.894 367.846 817.636 354.485L835.145 394.81ZM183.562 808.973C198.287 847.599 220.618 884.135 251.112 918.27C256.032 924.731 273.172 946.362 262.142 977.454M263.603 403.526C250.868 419.072 239.435 436.442 229.72 455.679L263.603 403.526ZM615.8 276.211C557.401 261.382 484.896 265.901 403.533 299.291L615.8 276.211ZM804.317 613.41C814.373 630.572 819.313 650.615 820.336 671.23L804.317 613.41ZM651.854 972.191C615.995 987.647 575.94 997.011 533.087 999.677C508.925 1001.18 489.983 1015.51 476.81 1045.76M411 1023.08C406.031 1033.14 399.267 1043.75 389.733 1057.1L411 1023.08Z" fill="black"/>
<path d="M564.993 35.75C600.546 37.0797 631.124 41.2361 654.325 47.0424M835.305 128.589C854.435 143.299 872.34 160.182 889.299 180.184M148.273 301.985C130.284 322.53 111.857 341.717 90.0342 354.263M592.759 113.161C664.053 122.003 730.177 147.47 785.563 183.331M890.677 313.396C901.797 332.841 913.092 351.102 925.966 363.508M908.916 617.03C917.838 646.556 924.073 688.851 911.846 739.172M762.118 1008.11C718.89 1038.29 667.971 1058.01 612.717 1064.7M133.917 464.033C126.937 480.533 119.742 496.107 110.932 507.1M557.241 189.2C641.882 191.323 720.748 222.297 777.525 286.341M835.145 394.81C830.782 380.809 824.894 367.846 817.636 354.485M183.562 808.973C198.287 847.599 220.618 884.135 251.112 918.27C256.032 924.731 273.172 946.362 262.142 977.454M263.603 403.526C250.868 419.072 239.435 436.442 229.72 455.679M615.8 276.211C557.401 261.382 484.896 265.901 403.533 299.291M804.317 613.41C814.373 630.572 819.313 650.615 820.336 671.23M651.854 972.191C615.995 987.647 575.94 997.011 533.087 999.677C508.925 1001.18 489.983 1015.51 476.81 1045.76M411 1023.08C406.031 1033.14 399.267 1043.75 389.733 1057.1" stroke="url(#paint0_linear_2366_22)" stroke-width="50" stroke-linecap="round"/>
</mask>
<g mask="url(#mask1_2366_22)">
<path d="M564.993 35.75C600.546 37.0797 631.124 41.2361 654.325 47.0424M835.305 128.589C854.435 143.299 872.34 160.182 889.299 180.184M148.273 301.985C130.284 322.53 111.857 341.717 90.0342 354.263M592.759 113.161C664.053 122.003 730.177 147.47 785.563 183.331M890.677 313.396C901.797 332.841 913.092 351.102 925.966 363.508M908.916 617.03C917.838 646.556 924.073 688.851 911.846 739.172M762.118 1008.11C718.89 1038.29 667.971 1058.01 612.717 1064.7M133.917 464.033C126.937 480.533 119.742 496.107 110.932 507.1M557.241 189.2C641.882 191.323 720.748 222.297 777.525 286.341M835.145 394.81C830.782 380.809 824.894 367.846 817.636 354.485M183.562 808.973C198.287 847.599 220.618 884.135 251.112 918.27C256.032 924.731 273.172 946.362 262.142 977.454M263.603 403.526C250.868 419.072 239.435 436.442 229.72 455.679M615.8 276.211C557.401 261.382 484.896 265.901 403.533 299.291M804.317 613.41C814.373 630.572 819.313 650.615 820.336 671.23M651.854 972.191C615.995 987.647 575.94 997.011 533.087 999.677C508.925 1001.18 489.983 1015.51 476.81 1045.76M411 1023.08C406.031 1033.14 399.267 1043.75 389.733 1057.1" stroke="url(#paint1_linear_2366_22)" stroke-width="50" stroke-linecap="round"/>
</g>
</g>
<g opacity="0.504073">
<g opacity="0.8">
<path d="M298.835 847.499C280.703 821.689 263.085 790.508 255.664 748.079C237.683 645.29 260.801 478.254 422.625 383.172C560.482 302.172 687.559 369.828 687.559 468.363" stroke="url(#paint2_linear_2366_22)" stroke-width="50" stroke-linecap="round"/>
</g>
<path d="M592.368 441.849C587.643 437.833 582.227 434.239 576.119 431.186C528.79 407.531 431.364 454.01 380.972 530.85C330.579 607.691 312.391 702.312 349.018 783.041M731.915 749.704C743.855 698.996 736.508 658.726 712.785 619.223M433.957 882.229C513.389 931.153 621.832 918.773 692.524 840.603" stroke="url(#paint3_linear_2366_22)" stroke-width="50" stroke-linecap="round"/>
</g>
<path d="M675.668 524.773C690.08 524.773 701.764 536.462 701.764 550.881C701.764 565.3 690.08 576.99 675.668 576.99C661.255 576.99 649.571 565.3 649.571 550.881C649.571 536.462 661.255 524.773 675.668 524.773Z" fill="#D0FFE9"/>
<path d="M541.223 499.228C482.257 522.038 407.72 597.971 407.72 699.674C407.72 792.572 483.485 830.063 533.994 830.063C709.201 830.063 684.338 573.117 518.826 605.87" stroke="url(#paint4_linear_2366_22)" stroke-width="50" stroke-linecap="round"/>
<path d="M533.222 673.071C556.454 673.071 575.288 691.913 575.288 715.155C575.288 738.398 556.454 757.24 533.222 757.24C509.99 757.24 491.156 738.398 491.156 715.155C491.156 691.913 509.99 673.071 533.222 673.071Z" stroke="url(#paint5_linear_2366_22)" stroke-width="50" stroke-linecap="round"/>
</g>
<defs>
<linearGradient id="paint0_linear_2366_22" x1="391.003" y1="1056.31" x2="757.29" y2="84.1191" gradientUnits="userSpaceOnUse">
<stop stop-color="white" stop-opacity="0.3"/>
<stop offset="0.57" stop-color="white" stop-opacity="0.65"/>
<stop offset="1" stop-color="white"/>
</linearGradient>
<linearGradient id="paint1_linear_2366_22" x1="391.003" y1="1056.31" x2="757.29" y2="84.1191" gradientUnits="userSpaceOnUse">
<stop offset="0.1" stop-color="white"/>
<stop offset="0.87" stop-color="white"/>
<stop offset="1" stop-color="white"/>
</linearGradient>
<linearGradient id="paint2_linear_2366_22" x1="621.36" y1="384.609" x2="343.308" y2="1003.91" gradientUnits="userSpaceOnUse">
<stop stop-color="#D0FFE9"/>
<stop offset="0.5" stop-color="#B3F3D5" stop-opacity="0.56"/>
<stop offset="1" stop-color="#96E6C2" stop-opacity="0.12"/>
</linearGradient>
<linearGradient id="paint3_linear_2366_22" x1="608.361" y1="477.816" x2="380.165" y2="887.695" gradientUnits="userSpaceOnUse">
<stop stop-color="#D0FFE9"/>
<stop offset="0.5" stop-color="#B3F3D5" stop-opacity="0.65"/>
<stop offset="1" stop-color="#96E6C2" stop-opacity="0.3"/>
</linearGradient>
<linearGradient id="paint4_linear_2366_22" x1="530.625" y1="675.089" x2="530.625" y2="821.291" gradientUnits="userSpaceOnUse">
<stop stop-color="#D0FFE9"/>
<stop offset="0.5" stop-color="#B3F3D5"/>
<stop offset="1" stop-color="#96E6C2"/>
</linearGradient>
<linearGradient id="paint5_linear_2366_22" x1="533.222" y1="675.472" x2="533.222" y2="756.927" gradientUnits="userSpaceOnUse">
<stop stop-color="#D0FFE9"/>
<stop offset="0.5" stop-color="#B3F3D5"/>
<stop offset="1" stop-color="#96E6C2"/>
</linearGradient>
</defs>
</svg>
