<svg width="207" height="207" viewBox="0 0 207 207" fill="none" xmlns="http://www.w3.org/2000/svg">
<g clip-path="url(#clip0_2371_1738)">
<path d="M135.488 86.5824L134.227 91.3098C131.553 89.0827 128.783 86.9034 125.938 84.7986C129.285 83.4406 132.837 83.9317 135.488 86.5824Z" fill="white"/>
<path d="M146.255 102.082C149.314 104.954 150.706 109.21 149.823 113.304C149.035 116.934 147.507 120.931 145.503 124.712C144.048 127.473 142.343 130.117 140.494 132.425C139.648 133.484 138.77 134.474 137.873 135.371C136.976 136.268 136.044 137.13 135.118 137.929C132.645 140.065 130.124 141.813 127.667 143.199C124.799 144.818 122.019 145.934 119.5 146.576L113.115 140.192C119.276 138.454 126.007 134.816 131.707 129.206C140.993 119.771 144.878 107.512 143.677 99.6844C144.482 100.431 145.349 101.234 146.255 102.082Z" fill="#0D1414"/>
<path d="M134.227 91.3098C136.466 93.1716 138.642 95.0705 140.741 96.9934C141.591 97.7695 142.581 98.6736 143.677 99.6844C144.878 107.512 140.993 119.771 131.707 129.206C126.007 134.816 119.276 138.454 113.115 140.192L106.902 133.979C106.299 136.219 105.977 138.739 105.886 141.379C104.594 141.423 103.374 141.357 102.244 141.186C102.223 141.164 102.148 141.09 102.132 141.074C102.015 140.956 101.903 140.828 101.788 140.708C101.743 140.663 101.698 140.612 101.655 140.564C101.642 140.556 101.634 140.543 101.62 140.53C101.543 140.452 101.471 140.375 101.396 140.295C101.3 140.194 101.202 140.09 101.103 139.986C101.087 139.964 101.068 139.951 101.052 139.93C100.775 139.642 96.6945 135.109 96.6385 135.048C96.4385 134.826 92.7097 130.384 92.6911 130.366C92.4003 130.006 88.2258 124.676 88.1698 124.604C87.8923 124.241 86.0463 121.735 85.4034 120.842C84.1255 119.059 82.8796 117.254 81.6657 115.439C75.0729 105.546 69.2679 94.8385 65.0452 84.0582C66.4809 86.388 69.4788 87.3368 73.4232 86.2831C76.771 85.3887 80.1628 83.2236 82.9439 80.4424C85.7251 77.6613 87.8875 74.2722 88.782 70.9244C89.8356 66.98 88.8869 63.982 86.557 62.5464C100.024 67.8214 113.661 75.6833 125.938 84.7986C128.782 86.9034 131.553 89.0827 134.227 91.3098ZM115.728 88.923C115.302 83.376 110.725 78.2938 105.503 77.5693C100.281 76.8501 96.3923 80.7596 96.8161 86.3092C97.2426 91.8562 101.819 96.9384 107.039 97.6603C112.261 98.3848 116.152 94.4726 115.728 88.923Z" fill="white"/>
<path d="M105.503 77.5692C110.725 78.2938 115.302 83.376 115.728 88.9229C116.152 94.4725 112.261 98.3848 107.039 97.6602C101.819 96.9384 97.2426 91.8562 96.8161 86.3092C96.3923 80.7596 100.281 76.8501 105.503 77.5692ZM112.485 88.4748C112.207 84.8275 109.199 81.4891 105.765 81.0141C102.336 80.5391 99.778 83.1074 100.059 86.7574C100.337 90.4047 103.345 93.7431 106.777 94.2207C110.211 94.6957 112.766 92.1248 112.485 88.4748Z" fill="white"/>
<path d="M105.765 81.0141C109.199 81.4891 112.208 84.8275 112.486 88.4748C112.767 92.1248 110.212 94.6957 106.777 94.2207C103.345 93.7431 100.337 90.4047 100.059 86.7574C99.7783 83.1074 102.336 80.5391 105.765 81.0141Z" fill="#0D1414"/>
<path d="M86.5575 62.5465C88.8872 63.982 89.836 66.98 88.7823 70.9244C87.8879 74.2722 85.7228 77.664 82.9443 80.4424C80.1658 83.2209 76.7714 85.3887 73.4236 86.2831C69.4792 87.3368 66.4812 86.388 65.0457 84.0583C64.4314 82.4859 63.8545 80.9242 63.3148 79.3732C64.5794 81.2713 67.119 82.0278 70.4347 81.1438C73.3111 80.3742 76.229 78.5123 78.6216 76.1197C81.0141 73.7271 82.8734 70.8119 83.6431 67.9355C84.527 64.6198 83.7705 62.0802 81.8724 60.8155C83.4235 61.3552 84.9852 61.9322 86.5549 62.5439L86.5575 62.5465Z" fill="#EAECF0"/>
<path d="M81.8724 60.8155C83.7704 62.0801 84.5269 64.6197 83.6431 67.9355C82.8734 70.8119 81.0115 73.7298 78.6216 76.1197C76.2317 78.5096 73.3112 80.3742 70.4348 81.1439C67.1189 82.0277 64.5794 81.2712 63.3147 79.3731C63.3147 79.3731 63.3174 79.3705 63.312 79.3651C60.4452 71.1064 58.663 63.1019 58.2213 55.7194C65.6011 56.1637 73.6057 57.946 81.8644 60.8128C81.8671 60.8154 81.8724 60.8155 81.8724 60.8155Z" fill="#D0FFE9"/>
<path d="M145.505 124.715C153.099 134.342 156.387 142.82 158.742 156.156C145.577 153.827 137.145 150.59 127.667 143.199C130.124 141.813 132.645 140.065 135.118 137.929C137.616 139.564 140.097 140.395 143.635 141.022C143.006 137.444 142.167 134.949 140.494 132.425C142.343 130.117 144.048 127.473 145.502 124.712L145.505 124.715Z" fill="#CE6CA7"/>
<path d="M140.494 132.425C142.167 134.949 143.006 137.444 143.636 141.022C140.097 140.395 137.616 139.564 135.118 137.929C136.044 137.13 136.965 136.279 137.873 135.371C138.78 134.464 139.648 133.484 140.494 132.425Z" fill="white"/>
<path d="M119.499 146.576L119.518 146.595L113.517 169.06C109.427 164.969 106.264 154.515 105.898 144.786C105.876 144.216 105.862 143.648 105.861 143.083C105.858 142.511 105.868 141.941 105.886 141.379C105.977 138.739 106.299 136.219 106.902 133.979L119.499 146.576Z" fill="white"/>
<path d="M85.4037 120.842C84.1339 119.072 82.8853 117.27 81.666 115.439C82.88 117.254 84.1259 119.059 85.4037 120.842Z" fill="white"/>
<path d="M105.887 141.379C105.868 141.941 105.858 142.511 105.862 143.083C105.862 143.648 105.876 144.216 105.898 144.786C105.845 144.743 105.794 144.703 105.741 144.66C105.434 144.407 105.015 144.01 104.535 143.535C104.237 143.236 102.709 141.671 102.245 141.186C103.374 141.357 104.595 141.423 105.887 141.379Z" fill="#0D1414"/>
<path d="M89.3385 126.134C89.6266 126.508 89.9173 126.883 90.2081 127.254C89.9173 126.883 89.6266 126.513 89.3385 126.134Z" fill="white"/>
<path d="M91.003 128.267C91.2057 128.523 91.4084 128.774 91.6058 129.024C91.4057 128.771 91.203 128.52 91.003 128.267Z" fill="white"/>
<path d="M91.8162 129.283L92.6911 130.365C92.3977 130.008 92.1043 129.646 91.8162 129.283Z" fill="white"/>
<path d="M92.8111 130.512L93.8139 131.723C94.1874 132.171 94.5661 132.624 94.9422 133.069C94.222 132.227 93.5126 131.373 92.8111 130.512Z" fill="white"/>
<path d="M96.052 134.37C95.6813 133.941 95.3106 133.506 94.9425 133.069L96.052 134.37Z" fill="white"/>
<path d="M97.7218 136.279C97.4124 135.933 97.1083 135.586 96.8043 135.234C97.1697 135.653 97.5271 136.058 97.8738 136.447C97.8231 136.391 97.7724 136.335 97.7218 136.279Z" fill="white"/>
<path d="M98.5508 137.205C98.3215 136.954 98.0975 136.703 97.8734 136.447L98.5508 137.205Z" fill="white"/>
<path d="M99.4923 138.242C99.1776 137.901 98.8629 137.554 98.5508 137.205C98.8789 137.57 99.1936 137.917 99.4923 138.242Z" fill="white"/>
<path d="M99.8283 138.61C99.8896 138.677 99.9563 138.749 100.028 138.826L99.8283 138.61Z" fill="white"/>
<path d="M101.052 139.93C100.802 139.663 100.551 139.391 100.3 139.119C100.527 139.362 100.78 139.636 101.052 139.93Z" fill="white"/>
<path d="M102.133 141.074L102.245 141.186L102.239 141.186C102.202 141.148 102.17 141.111 102.133 141.074Z" fill="white"/>
<path d="M102.245 141.186C102.709 141.671 104.237 143.236 104.535 143.535C103.842 142.852 103.023 142.007 102.239 141.186C102.239 141.186 102.242 141.188 102.245 141.186Z" fill="white"/>
<path d="M104.535 143.535C105.015 144.01 105.437 144.404 105.741 144.66C105.458 144.436 105.194 144.199 104.941 143.946C104.805 143.81 104.669 143.674 104.535 143.535Z" fill="white"/>
<path d="M102.184 141.178L102.24 141.186C102.24 141.186 102.242 141.188 102.245 141.186C103.375 141.357 104.595 141.423 105.887 141.379" stroke="#0D1414" stroke-width="3" stroke-linecap="round" stroke-linejoin="round"/>
<path d="M113.115 140.192C119.276 138.454 126.007 134.816 131.707 129.206C140.993 119.771 144.878 107.512 143.677 99.6844" stroke="#0D1414" stroke-width="3" stroke-linecap="round" stroke-linejoin="round"/>
<path d="M81.8724 60.8155C83.7704 62.0802 84.5269 64.6198 83.643 67.9355C82.8733 70.8119 81.0114 73.7298 78.6215 76.1197C76.2316 78.5096 73.311 80.3742 70.4347 81.1438C67.1189 82.0278 64.5794 81.2713 63.3147 79.3732" stroke="#0D1414" stroke-width="3" stroke-linecap="round" stroke-linejoin="round"/>
<path d="M86.557 62.5464C88.8869 63.982 89.8356 66.98 88.782 70.9244C87.8876 74.2722 85.7224 77.664 82.944 80.4425C80.1655 83.2209 76.771 85.3887 73.4232 86.2831C69.4789 87.3368 66.4809 86.3881 65.0452 84.0582" stroke="#0D1414" stroke-width="3" stroke-linecap="round" stroke-linejoin="round"/>
<path d="M85.4036 120.842C84.1338 119.072 82.8852 117.27 81.6659 115.439C75.0758 105.543 69.2682 94.8385 65.0455 84.0583C64.4312 82.4859 63.8542 80.9242 63.3145 79.3731C63.3145 79.3731 63.3172 79.3705 63.3119 79.3652C60.4451 71.1064 58.6628 63.1019 58.2212 55.7194C65.601 56.1637 73.6055 57.946 81.8642 60.8128C81.8669 60.8155 81.8722 60.8155 81.8722 60.8155C83.4232 61.3551 84.9849 61.9321 86.5547 62.5438C100.024 67.8214 113.653 75.6913 125.938 84.7986C128.78 86.906 131.553 89.0827 134.227 91.3098C136.467 93.1716 138.642 95.0705 140.741 96.9934C141.592 97.7695 145.349 101.234 146.255 102.082C149.314 104.954 150.706 109.21 149.823 113.304C149.035 116.934 147.505 120.929 145.503 124.712C144.046 127.471 142.341 130.114 140.494 132.425C139.648 133.484 138.77 134.474 137.873 135.371C136.976 136.268 136.045 137.13 135.118 137.929C132.643 140.063 130.124 141.813 127.667 143.199C124.799 144.818 122.019 145.934 119.5 146.576" stroke="#0D1414" stroke-width="3" stroke-linecap="round" stroke-linejoin="round"/>
<path d="M88.17 124.604C87.8952 124.239 87.6205 123.874 87.3484 123.506" stroke="#0D1414" stroke-width="3" stroke-linecap="round" stroke-linejoin="round"/>
<path d="M90.2081 127.254C89.9173 126.883 89.6266 126.513 89.3385 126.134" stroke="#0D1414" stroke-width="3" stroke-linecap="round" stroke-linejoin="round"/>
<path d="M91.6056 129.024C91.4082 128.774 90.6027 127.761 90.4026 127.507" stroke="#0D1414" stroke-width="3" stroke-linecap="round" stroke-linejoin="round"/>
<path d="M92.6911 130.365L91.8162 129.283" stroke="#0D1414" stroke-width="3" stroke-linecap="round" stroke-linejoin="round"/>
<path d="M96.0518 134.37C95.6864 133.941 93.1472 130.917 92.8112 130.512" stroke="#0D1414" stroke-width="3" stroke-linecap="round" stroke-linejoin="round"/>
<path d="M99.4926 138.242C99.1939 137.917 97.1696 135.653 96.8042 135.234" stroke="#0D1414" stroke-width="3" stroke-linecap="round" stroke-linejoin="round"/>
<path d="M100.028 138.826C99.9563 138.749 99.8896 138.677 99.8283 138.61" stroke="#0D1414" stroke-width="3" stroke-linecap="round" stroke-linejoin="round"/>
<path d="M101.052 139.93C100.78 139.636 100.527 139.362 100.3 139.119" stroke="#0D1414" stroke-width="3" stroke-linecap="round" stroke-linejoin="round"/>
<path d="M105.898 144.786C105.845 144.743 105.794 144.703 105.741 144.66C105.434 144.407 105.015 144.01 104.535 143.535C103.842 142.852 103.034 141.996 102.239 141.186C102.202 141.148 102.17 141.111 102.133 141.074" stroke="#0D1414" stroke-width="3" stroke-linecap="round" stroke-linejoin="round"/>
<path d="M102.133 141.074C102.149 141.09 104.805 143.81 104.941 143.946C105.194 144.199 105.458 144.436 105.741 144.66" stroke="#0D1414" stroke-width="3" stroke-linecap="round" stroke-linejoin="round"/>
<path d="M102.133 141.074C102.021 140.951 101.903 140.828 101.788 140.708C101.743 140.663 101.698 140.612 101.655 140.564C101.642 140.556 101.634 140.543 101.62 140.53C101.543 140.452 101.471 140.375 101.396 140.295C101.3 140.194 101.202 140.09 101.103 139.986C101.087 139.964 101.071 139.948 101.052 139.93" stroke="#0D1414" stroke-width="3" stroke-linecap="round" stroke-linejoin="round"/>
<path d="M100.3 139.119C100.551 139.391 100.802 139.663 101.052 139.93" stroke="#0D1414" stroke-width="3" stroke-linecap="round" stroke-linejoin="round"/>
<path d="M100.301 139.119C100.25 139.063 100.197 139.01 100.149 138.956L100.143 138.951C100.103 138.911 100.066 138.863 100.029 138.826" stroke="#0D1414" stroke-width="3" stroke-linecap="round" stroke-linejoin="round"/>
<path d="M99.8283 138.61L100.028 138.826" stroke="#0D1414" stroke-width="3" stroke-linecap="round" stroke-linejoin="round"/>
<path d="M99.8286 138.61C99.7779 138.554 99.7326 138.503 99.6899 138.461C99.6606 138.426 99.6286 138.394 99.5992 138.359C99.5619 138.317 99.5245 138.279 99.4925 138.242" stroke="#0D1414" stroke-width="3" stroke-linecap="round" stroke-linejoin="round"/>
<path d="M96.8042 135.234C97.1083 135.586 99.1779 137.901 99.4926 138.242" stroke="#0D1414" stroke-width="3" stroke-linecap="round" stroke-linejoin="round"/>
<path d="M96.8041 135.234C96.7508 135.17 96.6948 135.109 96.6387 135.048C96.4387 134.826 96.2467 134.597 96.052 134.37" stroke="#0D1414" stroke-width="3" stroke-linecap="round" stroke-linejoin="round"/>
<path d="M92.8112 130.512C93.5127 131.373 95.6811 133.941 96.0518 134.37" stroke="#0D1414" stroke-width="3" stroke-linecap="round" stroke-linejoin="round"/>
<path d="M92.8111 130.512C92.7844 130.485 92.7657 130.456 92.7417 130.427C92.7231 130.408 92.7097 130.384 92.691 130.366" stroke="#0D1414" stroke-width="3" stroke-linecap="round" stroke-linejoin="round"/>
<path d="M91.8162 129.283C92.1043 129.646 92.3977 130.008 92.6911 130.365" stroke="#0D1414" stroke-width="3" stroke-linecap="round" stroke-linejoin="round"/>
<path d="M91.8162 129.283C91.7682 129.224 91.6295 129.054 91.6055 129.024" stroke="#0D1414" stroke-width="3" stroke-linecap="round" stroke-linejoin="round"/>
<path d="M90.4026 127.507C90.6027 127.761 91.4056 128.771 91.6056 129.024" stroke="#0D1414" stroke-width="3" stroke-linecap="round" stroke-linejoin="round"/>
<path d="M90.4027 127.507C90.3867 127.486 90.2533 127.315 90.208 127.254" stroke="#0D1414" stroke-width="3" stroke-linecap="round" stroke-linejoin="round"/>
<path d="M89.3385 126.134C89.6266 126.508 89.9173 126.883 90.2081 127.254" stroke="#0D1414" stroke-width="3" stroke-linecap="round" stroke-linejoin="round"/>
<path d="M89.3381 126.134C89.0634 125.78 88.2258 124.676 88.1697 124.604" stroke="#0D1414" stroke-width="3" stroke-linecap="round" stroke-linejoin="round"/>
<path d="M87.3484 123.506C87.6205 123.874 87.8952 124.239 88.17 124.604" stroke="#0D1414" stroke-width="3" stroke-linecap="round" stroke-linejoin="round"/>
<path d="M87.3485 123.506C86.6922 122.62 86.0466 121.735 85.4037 120.842" stroke="#0D1414" stroke-width="3" stroke-linecap="round" stroke-linejoin="round"/>
<path d="M81.666 115.439C82.88 117.254 84.1259 119.059 85.4037 120.842" stroke="#0D1414" stroke-width="3" stroke-linecap="round" stroke-linejoin="round"/>
<path d="M105.503 77.5692C110.725 78.2938 115.302 83.376 115.728 88.9229C116.152 94.4725 112.261 98.3848 107.039 97.6602C101.819 96.9384 97.2426 91.8562 96.8161 86.3092C96.3923 80.7596 100.281 76.8501 105.503 77.5692Z" stroke="#0D1414" stroke-width="3" stroke-linecap="round" stroke-linejoin="round"/>
<path d="M105.765 81.0141C109.199 81.4891 112.208 84.8275 112.486 88.4748C112.767 92.1248 110.212 94.6957 106.777 94.2207C103.345 93.7431 100.337 90.4047 100.059 86.7574C99.7783 83.1074 102.336 80.5391 105.765 81.0141Z" stroke="#0D1414" stroke-width="3" stroke-linecap="round" stroke-linejoin="round"/>
<path d="M119.499 146.576L106.902 133.979C106.299 136.219 105.972 138.739 105.886 141.379C105.868 141.941 105.858 142.511 105.861 143.083C105.862 143.648 105.876 144.216 105.898 144.786C106.27 154.515 109.427 164.969 113.517 169.06L119.518 146.595L119.499 146.576Z" stroke="#0D1414" stroke-width="3" stroke-linecap="round" stroke-linejoin="round"/>
<path d="M125.938 84.7986C129.285 83.4407 132.837 83.9317 135.488 86.5824L134.227 91.3098L134.224 91.3125" stroke="#0D1414" stroke-width="3" stroke-linecap="round" stroke-linejoin="round"/>
<path d="M127.667 143.199C137.145 150.59 145.577 153.827 158.743 156.156C156.387 142.82 153.1 134.342 145.505 124.715" stroke="#0D1414" stroke-width="3" stroke-linecap="round" stroke-linejoin="round"/>
<path d="M135.118 137.929C137.616 139.564 140.097 140.395 143.636 141.022C143.006 137.444 142.167 134.949 140.494 132.425" stroke="#0D1414" stroke-width="3" stroke-linecap="round" stroke-linejoin="round"/>
<path d="M84.4415 100.277C84.9454 100.658 85.4173 101.066 85.8467 101.496C87.8947 103.544 88.5895 105.702 88.0399 107.521L85.7219 115.237C86.1068 113.892 85.8149 112.36 84.7984 110.827C84.4516 110.304 84.0248 109.782 83.5074 109.264C79.5021 105.259 71.8249 103.192 66.3651 104.652C66.0029 104.747 65.6593 104.861 65.3318 104.981C60.1034 100.727 51.4672 98.664 45.1765 100.347C43.8928 100.692 42.8037 101.162 41.9091 101.737C40.5167 102.628 39.5961 103.767 39.1765 105.051L41.4679 97.4259L41.4732 97.3992C42.1237 95.234 44.1786 93.4618 47.513 92.5701C53.8038 90.8928 62.4399 92.9554 67.6657 97.2071C67.9906 97.0848 68.3341 96.976 68.6963 96.8804C71.2478 96.1957 74.2902 96.284 77.2133 96.9822C79.87 97.6109 82.426 98.751 84.4415 100.272L84.4415 100.277Z" fill="#EAECF0"/>
<path d="M83.5102 109.267C84.0276 109.784 84.4543 110.307 84.8012 110.829C85.815 112.36 86.1069 113.892 85.7247 115.239L85.7087 115.293C85.4459 116.169 84.8952 116.965 84.0727 117.633C83.4658 118.122 82.7096 118.542 81.8122 118.869C81.5139 118.975 81.2023 119.074 80.8721 119.164L55.7117 125.881C51.0323 127.131 44.4557 125.361 41.0263 121.932C37.5969 118.502 38.5471 114.96 42.8348 113.59C42.8375 113.593 42.8454 113.59 42.8508 113.585C42.8241 113.563 42.8001 113.545 42.7734 113.523C42.4668 113.259 42.1655 112.985 41.8828 112.702C39.3255 110.145 38.4623 107.45 39.1421 105.181L39.1792 105.059C39.6015 103.778 40.5195 102.636 41.9119 101.745C42.8037 101.168 43.8955 100.694 45.1792 100.355C51.47 98.6721 60.1035 100.737 65.3346 104.989C65.6621 104.869 66.003 104.758 66.3679 104.66C71.8303 103.197 79.5048 105.267 83.5102 109.272L83.5102 109.267Z" fill="white"/>
<path d="M39.179 105.053L39.1419 105.176C38.4595 107.448 39.3253 110.139 41.8827 112.697C42.1654 112.979 42.4667 113.254 42.7733 113.518C42.7973 113.542 42.8213 113.561 42.8507 113.579C42.8453 113.585 42.8427 113.587 42.8347 113.585C38.5443 114.958 37.7088 118.609 41.0262 121.927C44.3436 125.244 51.0295 127.124 55.7116 125.876C55.7116 125.876 81.5139 118.97 81.8121 118.864C82.7096 118.537 83.4631 118.12 84.0727 117.627C84.8978 116.962 85.4485 116.166 85.7087 115.287L85.7246 115.234" stroke="#0D1414" stroke-width="3" stroke-linecap="round" stroke-linejoin="round"/>
<path d="M39.1789 105.053C39.6012 103.772 40.5192 102.63 41.9116 101.739C42.8034 101.162 43.8952 100.689 45.1789 100.349C51.4697 98.6667 60.1034 100.732 65.3345 104.984C65.6621 104.864 66.003 104.753 66.3678 104.654C71.8303 103.192 79.5045 105.262 83.5099 109.267C84.0272 109.785 84.454 110.307 84.8009 110.83C85.8147 112.36 86.1066 113.892 85.7244 115.24L88.0423 107.524C88.592 105.705 87.8972 103.547 85.8491 101.499C85.4198 101.069 84.9481 100.661 84.4442 100.28C82.4314 98.7563 79.8752 97.6218 77.2158 96.9904C74.2927 96.2922 71.2529 96.2066 68.6988 96.8887C68.3366 96.9842 67.9933 97.0928 67.6684 97.215C62.44 92.9607 53.8034 90.8982 47.5155 92.5781C44.181 93.4699 42.1262 95.2421 41.4756 97.4073L41.4703 97.4339L39.1789 105.059L39.1789 105.053Z" stroke="#0D1414" stroke-width="3" stroke-linecap="round" stroke-linejoin="round"/>
</g>
<defs>
<clipPath id="clip0_2371_1738">
<rect width="137" height="155" fill="white" transform="translate(0 96.8736) rotate(-45)"/>
</clipPath>
</defs>
</svg>
