<svg xmlns="http://www.w3.org/2000/svg" xmlns:xlink="http://www.w3.org/1999/xlink" viewBox="0 0 1460 1580" width="1460" height="1580" preserveAspectRatio="xMidYMid meet" style="width: 100%; height: 100%; transform: translate3d(0px, 0px, 0px); content-visibility: visible;"><defs><clipPath id="__lottie_element_6"><rect width="1460" height="1580" x="0" y="0"></rect></clipPath><linearGradient id="__lottie_element_10" spreadMethod="pad" gradientUnits="userSpaceOnUse" x1="-40" y1="15" x2="-40" y2="225"><stop offset="0%" stop-color="rgb(208,255,233)"></stop><stop offset="50%" stop-color="rgb(179,243,213)"></stop><stop offset="100%" stop-color="rgb(150,230,194)"></stop></linearGradient><linearGradient id="__lottie_element_11" spreadMethod="pad" gradientUnits="userSpaceOnUse" x1="0" y1="-57" x2="0" y2="60"><stop offset="0%" stop-color="rgb(208,255,233)"></stop><stop offset="50%" stop-color="rgb(179,243,213)"></stop><stop offset="100%" stop-color="rgb(150,230,194)"></stop></linearGradient><linearGradient id="__lottie_element_18" spreadMethod="pad" gradientUnits="userSpaceOnUse" x1="228.10899353027344" y1="-398.39801025390625" x2="-171.156005859375" y2="491.281005859375"><stop offset="0%" stop-color="rgb(208,255,233)" stop-opacity="1"></stop><stop offset="50%" stop-color="rgb(179,243,213)" stop-opacity="0.5600000023841858"></stop><stop offset="100%" stop-color="rgb(150,230,194)" stop-opacity="0.11999999731779099"></stop></linearGradient><linearGradient id="__lottie_element_19" spreadMethod="pad" gradientUnits="userSpaceOnUse" x1="113.75800323486328" y1="-278.67999267578125" x2="-213.93800354003906" y2="310.17999267578125"><stop offset="0%" stop-color="rgb(208,255,233)" stop-opacity="1"></stop><stop offset="50%" stop-color="rgb(179,243,213)" stop-opacity="0.6499999761581421"></stop><stop offset="100%" stop-color="rgb(150,230,194)" stop-opacity="0.30000001192092896"></stop></linearGradient><linearGradient id="__lottie_element_23" spreadMethod="pad" gradientUnits="userSpaceOnUse" x1="562.3740234375" y1="1515.7490234375" x2="1088.3189697265625" y2="119.16999816894531"><stop offset="10%" stop-color="rgb(255,255,255)"></stop><stop offset="87%" stop-color="rgb(255,255,255)"></stop><stop offset="100%" stop-color="rgb(255,255,255)"></stop></linearGradient><mask id="__lottie_element_25"><path stroke="url(#__lottie_element_24)" stroke-linecap="round" stroke-linejoin="miter" stroke-miterlimit="4" stroke-width="50" d=" M730.22,50.27 C816.55,46.35 890.64,53.53 940.77,66.07 M1144.28,145.21 C1193.96,174.42 1238.05,209.72 1278.43,257.31 M260.66,378.27 C217.95,424.99 180.18,478.44 129.88,507.35 M664.45,165.39 C837.02,135.73 1002.72,179.86 1129.36,261.83 M1252.66,399.99 C1278.45,443.57 1301.97,492.55 1331.12,520.63 M1319.11,779.99 C1313.55,808.35 1305.13,833.25 1293.13,848.25 C1310.32,887.31 1334.37,963.43 1310.83,1060.22 M1200.93,1344.7 C1125.44,1445.49 1011.66,1511.96 880.98,1527.8 M210.28,623.92 C194.01,660.92 179.83,702.03 159.91,726.88 M579.82,307.71 C776.47,237.14 987.58,262.96 1117.81,409.79 M1209.63,604.64 C1203.93,568.04 1192.27,538.59 1175.45,507.67 M232.89,989.06 C233.76,1109.72 274.57,1220.36 361.35,1317.47 C368.42,1326.75 393.05,1357.82 377.2,1402.48 M418.24,536.85 C384.06,568.33 353.88,606.94 330.61,653.02 M1049.32,499.4 C967.35,392.25 795.39,340.19 580.38,428.39 M1168.34,835.99 C1161.88,845.84 1154.25,855.03 1145.51,863.7 C1167.3,891.4 1177.54,926.39 1179.33,962.63 M1083.8,1289.91 C1008.48,1375.4 896.47,1426.32 766.55,1434.4 C731.83,1436.56 704.61,1457.14 685.68,1500.59 M603.84,1433.78 C596.82,1460.88 585.05,1482.59 560.55,1516.88"></path></mask><linearGradient id="__lottie_element_24" spreadMethod="pad" gradientUnits="userSpaceOnUse" x1="562.3740234375" y1="1515.7490234375" x2="1088.3189697265625" y2="119.16999816894531"><stop stop-color="rgb(255,255,255)" offset="0%" stop-opacity="0.30000001192092896"></stop><stop stop-color="rgb(255,255,255)" offset="57%" stop-opacity="0.6499999761581421"></stop><stop stop-color="rgb(255,255,255)" offset="100%" stop-opacity="1"></stop></linearGradient><linearGradient id="__lottie_element_23" spreadMethod="pad" gradientUnits="userSpaceOnUse" x1="562.3740234375" y1="1515.7490234375" x2="1088.3189697265625" y2="119.16999816894531"><stop offset="10%" stop-color="rgb(255,255,255)"></stop><stop offset="87%" stop-color="rgb(255,255,255)"></stop><stop offset="100%" stop-color="rgb(255,255,255)"></stop></linearGradient><linearGradient id="__lottie_element_18" spreadMethod="pad" gradientUnits="userSpaceOnUse" x1="228.10899353027344" y1="-398.39801025390625" x2="-171.156005859375" y2="491.281005859375"><stop offset="0%" stop-color="rgb(208,255,233)" stop-opacity="1"></stop><stop offset="50%" stop-color="rgb(179,243,213)" stop-opacity="0.5600000023841858"></stop><stop offset="100%" stop-color="rgb(150,230,194)" stop-opacity="0.11999999731779099"></stop></linearGradient><linearGradient id="__lottie_element_19" spreadMethod="pad" gradientUnits="userSpaceOnUse" x1="113.75800323486328" y1="-278.67999267578125" x2="-213.93800354003906" y2="310.17999267578125"><stop offset="0%" stop-color="rgb(208,255,233)" stop-opacity="1"></stop><stop offset="50%" stop-color="rgb(179,243,213)" stop-opacity="0.6499999761581421"></stop><stop offset="100%" stop-color="rgb(150,230,194)" stop-opacity="0.30000001192092896"></stop></linearGradient><linearGradient id="__lottie_element_10" spreadMethod="pad" gradientUnits="userSpaceOnUse" x1="-40" y1="15" x2="-40" y2="225"><stop offset="0%" stop-color="rgb(208,255,233)"></stop><stop offset="50%" stop-color="rgb(179,243,213)"></stop><stop offset="100%" stop-color="rgb(150,230,194)"></stop></linearGradient><linearGradient id="__lottie_element_11" spreadMethod="pad" gradientUnits="userSpaceOnUse" x1="0" y1="-57" x2="0" y2="60"><stop offset="0%" stop-color="rgb(208,255,233)"></stop><stop offset="50%" stop-color="rgb(179,243,213)"></stop><stop offset="100%" stop-color="rgb(150,230,194)"></stop></linearGradient></defs><g clip-path="url(#__lottie_element_6)"><g style="display: block;" transform="matrix(1,0,0,1,-0.5,1.5)" opacity="0.08022578449905483"><g opacity="1" transform="matrix(1,0,0,1,0,0)"><path stroke="url(&quot;#__lottie_element_23&quot;)" mask="url(#__lottie_element_25)" stroke-linecap="round" stroke-linejoin="miter" fill-opacity="0" stroke-miterlimit="4" stroke-opacity="1" stroke-width="50px" d="M0 0 M730.22,50.27 C816.55,46.35 890.64,53.53 940.77,66.07 M1144.28,145.21 C1193.96,174.42 1238.05,209.72 1278.43,257.31 M260.66,378.27 C217.95,424.99 180.18,478.44 129.88,507.35 M664.45,165.39 C837.02,135.73 1002.72,179.86 1129.36,261.83 M1252.66,399.99 C1278.45,443.57 1301.97,492.55 1331.12,520.63 M1319.11,779.99 C1313.55,808.35 1305.13,833.25 1293.13,848.25 C1310.32,887.31 1334.37,963.43 1310.83,1060.22 M1200.93,1344.7 C1125.44,1445.49 1011.66,1511.96 880.98,1527.8 M210.28,623.92 C194.01,660.92 179.83,702.03 159.91,726.88 M579.82,307.71 C776.47,237.14 987.58,262.96 1117.81,409.79 M1209.63,604.64 C1203.93,568.04 1192.27,538.59 1175.45,507.67 M232.89,989.06 C233.76,1109.72 274.57,1220.36 361.35,1317.47 C368.42,1326.75 393.05,1357.82 377.2,1402.48 M418.24,536.85 C384.06,568.33 353.88,606.94 330.61,653.02 M1049.32,499.4 C967.35,392.25 795.39,340.19 580.38,428.39 M1168.34,835.99 C1161.88,845.84 1154.25,855.03 1145.51,863.7 C1167.3,891.4 1177.54,926.39 1179.33,962.63 M1083.8,1289.91 C1008.48,1375.4 896.47,1426.32 766.55,1434.4 C731.83,1436.56 704.61,1457.14 685.68,1500.59 M603.84,1433.78 C596.82,1460.88 585.05,1482.59 560.55,1516.88"></path><g opacity="1" transform="matrix(1,0,0,1,777.8909912109375,53.65299987792969)"></g><g opacity="1" transform="matrix(1,0,0,1,1168.4410400390625,179.75999450683594)"></g><g opacity="1" transform="matrix(1,0,0,1,233.5760040283203,410.2749938964844)"></g><g opacity="1" transform="matrix(1,0,0,1,773.8359985351562,182.13999938964844)"></g><g opacity="1" transform="matrix(1,0,0,1,1268.5460205078125,428.635986328125)"></g><g opacity="1" transform="matrix(1,0,0,1,1313.7459716796875,841.1129760742188)"></g><g opacity="1" transform="matrix(1,0,0,1,1083.2939453125,1342.5770263671875)"></g><g opacity="0.920373333333333" transform="matrix(1,0,0,1,200.41900634765625,648.0650024414062)"></g><g opacity="0.920373333333333" transform="matrix(1,0,0,1,715.5910034179688,334.1759948730469)"></g><g opacity="0.920373333333333" transform="matrix(1,0,0,1,1194.5419921875,584.3179931640625)"></g><g opacity="0.7870399999999999" transform="matrix(1,0,0,1,296.75201416015625,1075.0849609375)"></g><g opacity="0.7870399999999999" transform="matrix(1,0,0,1,406.29998779296875,570.8770141601562)"></g><g opacity="0.7870399999999999" transform="matrix(1,0,0,1,879.4979858398438,522.3140258789062)"></g><g opacity="0.7870399999999999" transform="matrix(1,0,0,1,1169.322021484375,862.8770141601562)"></g><g opacity="0.7870399999999999" transform="matrix(1,0,0,1,933.9080200195312,1279.241943359375)"></g><g opacity="0.7870399999999999" transform="matrix(1,0,0,1,586.3980102539062,1449.9219970703125)"></g></g></g><g style="display: block;" transform="matrix(1,0,0,1,-0.5,1.5)" opacity="0.5103483636363637"><g opacity="0.8" transform="matrix(1,0,0,1,665.291015625,949.3359985351562)"><path stroke="url(&quot;#__lottie_element_18&quot;)" stroke-linecap="round" stroke-linejoin="miter" fill-opacity="0" stroke-miterlimit="4" stroke-opacity="1" stroke-width="50px" d=" M-194.61099243164062,514.5399780273438 C-159.53199768066406,464.3800048828125 -159.72500610351562,453.0889892578125 -159.72500610351562,402.177001953125 C-159.72500610351562,324.1470031738281 -271.56201171875,271.3269958496094 -297.3999938964844,123.677001953125 C-323.2380065917969,-23.96500015258789 -290.0169982910156,-263.8890075683594 -57.474998474121094,-400.46099853515625 C140.6269989013672,-516.8070068359375 323.23699951171875,-419.62799072265625 323.23699951171875,-278.09698486328125"></path></g><g opacity="1" transform="matrix(1,0,0,1,760.9619750976562,963.4979858398438)"><path stroke="url(&quot;#__lottie_element_19&quot;)" stroke-linecap="round" stroke-linejoin="miter" fill-opacity="0" stroke-miterlimit="4" stroke-opacity="1" stroke-width="50px" d=" M93.05000305175781,-184.64199829101562 C143.6820068359375,-232.23199462890625 134.9080047607422,-311.9460144042969 67.4260025024414,-345.6579895019531 C-0.5860000252723694,-379.635009765625 -140.58799743652344,-312.875 -213.0030059814453,-202.50399780273438 C-285.4169921875,-92.13300323486328 -311.5539855957031,43.777000427246094 -258.9209899902344,159.73399353027344 M278.9750061035156,153.71400451660156 C311.55499267578125,60.36399841308594 304.18499755859375,-8.37600040435791 263.81500244140625,-75.56800079345703 M-205.7010040283203,242.41400146484375 C-94.62100219726562,375.7139892578125 110.5510025024414,379.6340026855469 234.6999969482422,242.41400146484375"></path></g></g><g style="display: block;" transform="matrix(1,0,0,1,-0.5,1.5)" opacity="1"><g opacity="1" transform="matrix(1,0,0,1,971.4400024414062,789.7659912109375)"><path fill="#D0FFE9" fill-opacity="1" d=" M0,-37.500999450683594 C20.711000442504883,-37.500999450683594 37.500999450683594,-20.711000442504883 37.500999450683594,0 C37.500999450683594,20.711000442504883 20.711000442504883,37.500999450683594 0,37.500999450683594 C-20.711000442504883,37.500999450683594 -37.500999450683594,20.711000442504883 -37.500999450683594,0 C-37.500999450683594,-20.711000442504883 -20.711000442504883,-37.500999450683594 0,-37.500999450683594z"></path></g></g><g style="display: block;" transform="matrix(1,0,0,1,-0.5,1.5)" opacity="1"><g opacity="1" transform="matrix(1,0,0,1,803.0120239257812,953.1729736328125)"><path stroke="url(&quot;#__lottie_element_10&quot;)" stroke-linecap="round" stroke-linejoin="miter" fill-opacity="0" stroke-miterlimit="4" stroke-opacity="1" stroke-width="50px" d=" M-24.770999908447266,-237.60000610351562 C-109.50499725341797,-204.83599853515625 -216.61500549316406,-95.76899719238281 -216.61500549316406,50.3129997253418 C-216.61500549316406,183.74899291992188 -107.74099731445312,237.5989990234375 -35.159000396728516,237.5989990234375 C216.61500549316406,237.5989990234375 180.88699340820312,-131.46800231933594 -56.95500183105469,-84.4229965209961"></path></g><g opacity="1" transform="matrix(1,0,0,1,766.7440185546875,1025.7230224609375)"><path stroke="url(&quot;#__lottie_element_11&quot;)" stroke-linecap="round" stroke-linejoin="miter" fill-opacity="0" stroke-miterlimit="4" stroke-opacity="1" stroke-width="50px" d=" M0,-60.44900131225586 C33.3849983215332,-60.44900131225586 60.44900131225586,-33.3849983215332 60.44900131225586,0 C60.44900131225586,33.3849983215332 33.3849983215332,60.44900131225586 0,60.44900131225586 C-33.3849983215332,60.44900131225586 -60.44900131225586,33.3849983215332 -60.44900131225586,0 C-60.44900131225586,-33.3849983215332 -33.3849983215332,-60.44900131225586 0,-60.44900131225586z"></path></g></g></g></svg>